#!OML:ASF C:\Vicon Data\Big\jianyuan-13\jianyuan\Session 1\Capture.male.ASF
:FULLY-SPECIFIED
:DEGREES
14
root -7.851579 16.639962 -23.279151 7.902904 10.424878 2.745298
lowerback -12.315155 -0.281469 -1.183044 
upperback 2.658566 -0.303428 1.141911 
thorax 9.810694 -0.257772 1.833778 
lowerneck 0.473912 -2.962651 5.689946 
upperneck 11.612042 -4.314886 -4.857987 
head 3.469332 -2.338723 -2.752832 
rclavicle 0.000000 0.000000 
rhumerus -47.179273 -21.909558 -68.697921 
rradius 33.443931 
rwrist 27.324659 
rhand -17.359585 -18.063706 
rfingers 0.000000 
rthumb 8.888399 -47.856516 
lclavicle 0.000000 0.000000 
lhumerus -36.973069 21.535373 79.911180 
lradius 33.625071 
lwrist -40.741574 
lhand -19.179387 1.399079 
lfingers 0.000000 
lthumb 7.131996 31.258933 
rfemur -41.807604 4.591465 11.514232 
rtibia 30.338768 
rfoot -0.466680 -7.293871 
rtoes -33.044163 
lfemur 7.418855 -2.435350 -22.902280 
ltibia 27.385833 
lfoot -11.624726 0.873802 
ltoes -38.963491 
15
root -7.862651 16.643020 -23.227360 7.941037 10.274603 2.769895
lowerback -12.271253 -0.292328 -1.206374 
upperback 2.667634 -0.315355 1.149114 
thorax 9.795750 -0.265084 1.852190 
lowerneck 0.564860 -2.893722 5.739451 
upperneck 11.495434 -4.209031 -4.910558 
head 3.416146 -2.284017 -2.771230 
rclavicle 0.000000 0.000000 
rhumerus -47.065253 -21.935219 -68.754581 
rradius 33.411861 
rwrist 27.371269 
rhand -17.356472 -18.110877 
rfingers 0.000000 
rthumb 8.891381 -47.903556 
lclavicle 0.000000 0.000000 
lhumerus -37.137991 21.696713 79.809936 
lradius 33.723116 
lwrist -40.428409 
lhand -19.192222 1.420661 
lfingers 0.000000 
lthumb 7.119620 31.280927 
rfemur -41.914455 4.559880 11.676547 
rtibia 30.688508 
rfoot -0.416299 -6.939832 
rtoes -32.754697 
lfemur 7.209517 -2.181805 -22.822619 
ltibia 27.957447 
lfoot -11.218240 0.966151 
ltoes -39.086793 
16
root -7.872901 16.645938 -23.177253 7.958930 10.140025 2.778732
lowerback -12.207621 -0.290808 -1.193954 
upperback 2.690022 -0.316727 1.155731 
thorax 9.783179 -0.265408 1.851905 
lowerneck 0.594748 -2.839148 5.751362 
upperneck 11.412646 -4.127283 -4.928398 
head 3.386054 -2.241536 -2.774415 
rclavicle 0.000000 0.000000 
rhumerus -46.943188 -22.016725 -68.781998 
rradius 33.368761 
rwrist 27.502012 
rhand -17.355223 -18.155462 
rfingers 0.000000 
rthumb 8.892571 -47.948097 
lclavicle 0.000000 0.000000 
lhumerus -37.278658 21.904973 79.676499 
lradius 33.777280 
lwrist -40.430702 
lhand -19.240175 1.290200 
lfingers 0.000000 
lthumb 7.073341 31.151998 
rfemur -41.988915 4.568967 11.828121 
rtibia 31.019874 
rfoot -0.347363 -6.608556 
rtoes -32.330859 
lfemur 6.992865 -1.926142 -22.725506 
ltibia 28.546703 
lfoot -10.806561 1.073592 
ltoes -39.410209 
17
root -7.882213 16.648926 -23.130607 7.955549 10.032995 2.750395
lowerback -12.119894 -0.281007 -1.131046 
upperback 2.730300 -0.316653 1.172275 
thorax 9.775800 -0.262788 1.834017 
lowerneck 0.549734 -2.798416 5.736501 
upperneck 11.356952 -4.067888 -4.919336 
head 3.379004 -2.209877 -2.767127 
rclavicle 0.000000 0.000000 
rhumerus -46.788913 -22.134512 -68.788774 
rradius 33.294371 
rwrist 27.740327 
rhand -17.338581 -18.183073 
rfingers 0.000000 
rthumb 8.908635 -47.975056 
lclavicle 0.000000 0.000000 
lhumerus -37.370700 22.100100 79.551772 
lradius 33.820373 
lwrist -40.650356 
lhand -19.237718 1.112615 
lfingers 0.000000 
lthumb 7.075725 30.974299 
rfemur -42.040766 4.597331 11.996099 
rtibia 31.334097 
rfoot -0.289791 -6.305918 
rtoes -31.898319 
lfemur 6.765526 -1.683159 -22.592444 
ltibia 29.139566 
lfoot -10.376016 1.230028 
ltoes -40.070229 
18
root -7.893710 16.651370 -23.083722 7.991607 9.940966 2.629736
lowerback -12.082235 -0.270440 -0.992268 
upperback 2.742403 -0.326825 1.185743 
thorax 9.766515 -0.260372 1.767775 
lowerneck 0.554116 -2.744213 5.845217 
upperneck 11.287454 -3.988803 -4.949651 
head 3.357077 -2.165038 -2.793732 
rclavicle 0.000000 0.000000 
rhumerus -46.669394 -22.219246 -68.907071 
rradius 33.263827 
rwrist 27.817156 
rhand -17.299627 -18.199172 
rfingers 0.000000 
rthumb 8.946251 -47.989501 
lclavicle 0.000000 0.000000 
lhumerus -37.435742 22.109371 79.484143 
lradius 33.892171 
lwrist -40.219068 
lhand -19.192943 1.151159 
lfingers 0.000000 
lthumb 7.118948 31.011384 
rfemur -42.139730 4.606681 12.274592 
rtibia 31.621718 
rfoot -0.202005 -5.942677 
rtoes -31.575051 
lfemur 6.437335 -1.398909 -22.327247 
ltibia 29.777118 
lfoot -9.903856 1.325492 
ltoes -40.518621 
19
root -7.906075 16.653836 -23.035890 8.004873 9.839542 2.583924
lowerback -12.020593 -0.267726 -0.979420 
upperback 2.763845 -0.330216 1.223881 
thorax 9.754404 -0.263031 1.800720 
lowerneck 0.569128 -2.696953 5.874676 
upperneck 11.220832 -3.917339 -4.984577 
head 3.334569 -2.127832 -2.807312 
rclavicle 0.000000 0.000000 
rhumerus -46.528201 -22.183770 -69.006953 
rradius 33.254685 
rwrist 27.695667 
rhand -17.315570 -18.231100 
rfingers 0.000000 
rthumb 8.930853 -48.022065 
lclavicle 0.000000 0.000000 
lhumerus -37.500442 22.099616 79.511400 
lradius 33.936760 
lwrist -39.691624 
lhand -19.250046 1.181491 
lfingers 0.000000 
lthumb 7.063797 31.043573 
rfemur -42.187205 4.662536 12.446613 
rtibia 31.895578 
rfoot -0.175347 -5.639580 
rtoes -31.149360 
lfemur 6.146446 -1.145684 -22.146325 
ltibia 30.450174 
lfoot -9.455753 1.389171 
ltoes -40.683697 
20
root -7.918348 16.656913 -22.987027 8.010664 9.745139 2.562454
lowerback -11.950700 -0.273797 -0.990979 
upperback 2.782861 -0.341562 1.263598 
thorax 9.735295 -0.270919 1.847549 
lowerneck 0.605012 -2.649320 5.866294 
upperneck 11.160309 -3.846878 -4.999055 
head 3.310995 -2.092465 -2.806580 
rclavicle 0.000000 0.000000 
rhumerus -46.392492 -22.129958 -69.092978 
rradius 33.251450 
rwrist 27.564330 
rhand -17.353889 -18.260143 
rfingers 0.000000 
rthumb 8.893854 -48.052699 
lclavicle 0.000000 0.000000 
lhumerus -37.581978 22.085272 79.551577 
lradius 33.973185 
lwrist -39.178195 
lhand -19.365448 1.230259 
lfingers 0.000000 
lthumb 6.952370 31.096078 
rfemur -42.205406 4.746538 12.571532 
rtibia 32.158675 
rfoot -0.220624 -5.405267 
rtoes -30.790819 
lfemur 5.855279 -0.920835 -21.996035 
ltibia 31.158960 
lfoot -9.007043 1.449558 
ltoes -40.714717 
21
root -7.928731 16.661791 -22.936810 8.036192 9.689414 2.475522
lowerback -11.900420 -0.291837 -0.842387 
upperback 2.777196 -0.389551 1.262262 
thorax 9.700279 -0.285181 1.752092 
lowerneck 0.684236 -2.587656 5.890766 
upperneck 11.112881 -3.765297 -4.943161 
head 3.285269 -2.048482 -2.786791 
rclavicle 0.000000 0.000000 
rhumerus -46.313620 -22.244026 -69.171324 
rradius 33.226310 
rwrist 27.771603 
rhand -17.357866 -18.251062 
rfingers 0.000000 
rthumb 8.890049 -48.043843 
lclavicle 0.000000 0.000000 
lhumerus -37.715032 22.092402 79.454544 
lradius 34.035472 
lwrist -38.885746 
lhand -19.467809 1.350000 
lfingers 0.000000 
lthumb 6.853582 31.219076 
rfemur -42.230771 4.829229 12.751864 
rtibia 32.414802 
rfoot -0.369766 -5.267125 
rtoes -30.825490 
lfemur 5.493985 -0.724118 -21.781783 
ltibia 31.909781 
lfoot -8.511816 1.559041 
ltoes -40.866833 
22
root -7.940162 16.667047 -22.884157 8.023968 9.632123 2.424010
lowerback -11.847149 -0.300714 -0.801775 
upperback 2.824585 -0.413342 1.301550 
thorax 9.722206 -0.296684 1.766652 
lowerneck 0.639559 -2.534514 5.887213 
upperneck 11.101087 -3.691283 -4.957664 
head 3.294005 -2.011359 -2.790889 
rclavicle 0.000000 0.000000 
rhumerus -46.117668 -22.273712 -69.276581 
rradius 33.203002 
rwrist 27.695239 
rhand -17.411809 -18.303981 
rfingers 0.000000 
rthumb 8.837988 -48.098952 
lclavicle 0.000000 0.000000 
lhumerus -37.771851 22.214181 79.420789 
lradius 34.033393 
lwrist -38.777712 
lhand -19.491376 1.299033 
lfingers 0.000000 
lthumb 6.830821 31.168846 
rfemur -42.212860 4.907309 12.911766 
rtibia 32.689297 
rfoot -0.557881 -5.198513 
rtoes -30.800691 
lfemur 5.160650 -0.499482 -21.591832 
ltibia 32.710014 
lfoot -7.973647 1.658823 
ltoes -41.306157 
